<mxfile host="app.diagrams.net" agent="Mozilla/5.0 (Windows NT 10.0; Win64; x64) AppleWebKit/537.36 (KHTML, like Gecko) Chrome/140.0.0.0 Safari/537.36" version="28.2.3">
  <diagram name="Page-1" id="A9l9XStR-_IQsLgBZhP8">
    <mxGraphModel dx="992" dy="540" grid="1" gridSize="10" guides="1" tooltips="1" connect="1" arrows="1" fold="1" page="1" pageScale="1" pageWidth="827" pageHeight="1169" math="0" shadow="0">
      <root>
        <mxCell id="0" />
        <mxCell id="1" parent="0" />
        <mxCell id="LtXlSucPZQRgdzdFiFGl-5" style="edgeStyle=orthogonalEdgeStyle;rounded=0;orthogonalLoop=1;jettySize=auto;html=1;" parent="1" source="LtXlSucPZQRgdzdFiFGl-1" target="LtXlSucPZQRgdzdFiFGl-4" edge="1">
          <mxGeometry relative="1" as="geometry" />
        </mxCell>
        <mxCell id="LtXlSucPZQRgdzdFiFGl-6" value="Req = 1" style="edgeLabel;html=1;align=center;verticalAlign=middle;resizable=0;points=[];" parent="LtXlSucPZQRgdzdFiFGl-5" vertex="1" connectable="0">
          <mxGeometry x="0.3057" y="-1" relative="1" as="geometry">
            <mxPoint as="offset" />
          </mxGeometry>
        </mxCell>
        <mxCell id="LtXlSucPZQRgdzdFiFGl-1" value="WAIT_A" style="ellipse;whiteSpace=wrap;html=1;aspect=fixed;direction=west;" parent="1" vertex="1">
          <mxGeometry x="334" y="170" width="80" height="80" as="geometry" />
        </mxCell>
        <mxCell id="LtXlSucPZQRgdzdFiFGl-2" style="edgeStyle=orthogonalEdgeStyle;rounded=0;orthogonalLoop=1;jettySize=auto;html=1;entryX=0;entryY=0.5;entryDx=0;entryDy=0;" parent="1" source="LtXlSucPZQRgdzdFiFGl-1" target="LtXlSucPZQRgdzdFiFGl-1" edge="1">
          <mxGeometry relative="1" as="geometry" />
        </mxCell>
        <mxCell id="LtXlSucPZQRgdzdFiFGl-3" value="Req = 0" style="edgeLabel;html=1;align=center;verticalAlign=middle;resizable=0;points=[];" parent="LtXlSucPZQRgdzdFiFGl-2" vertex="1" connectable="0">
          <mxGeometry y="4" relative="1" as="geometry">
            <mxPoint x="-3" y="-4" as="offset" />
          </mxGeometry>
        </mxCell>
        <mxCell id="LtXlSucPZQRgdzdFiFGl-8" style="edgeStyle=orthogonalEdgeStyle;rounded=0;orthogonalLoop=1;jettySize=auto;html=1;" parent="1" source="LtXlSucPZQRgdzdFiFGl-4" target="LtXlSucPZQRgdzdFiFGl-7" edge="1">
          <mxGeometry relative="1" as="geometry" />
        </mxCell>
        <mxCell id="LtXlSucPZQRgdzdFiFGl-9" value="Req = 0" style="edgeLabel;html=1;align=center;verticalAlign=middle;resizable=0;points=[];" parent="LtXlSucPZQRgdzdFiFGl-8" vertex="1" connectable="0">
          <mxGeometry x="0.0057" y="-2" relative="1" as="geometry">
            <mxPoint as="offset" />
          </mxGeometry>
        </mxCell>
        <mxCell id="LtXlSucPZQRgdzdFiFGl-4" value="IN_A&lt;div&gt;ack = 1&lt;/div&gt;" style="ellipse;whiteSpace=wrap;html=1;aspect=fixed;" parent="1" vertex="1">
          <mxGeometry x="414" y="310" width="80" height="80" as="geometry" />
        </mxCell>
        <mxCell id="LtXlSucPZQRgdzdFiFGl-11" value="" style="edgeStyle=orthogonalEdgeStyle;rounded=0;orthogonalLoop=1;jettySize=auto;html=1;" parent="1" source="LtXlSucPZQRgdzdFiFGl-7" target="LtXlSucPZQRgdzdFiFGl-10" edge="1">
          <mxGeometry relative="1" as="geometry" />
        </mxCell>
        <mxCell id="LtXlSucPZQRgdzdFiFGl-12" value="Req = 1" style="edgeLabel;html=1;align=center;verticalAlign=middle;resizable=0;points=[];" parent="LtXlSucPZQRgdzdFiFGl-11" vertex="1" connectable="0">
          <mxGeometry x="-0.085" y="2" relative="1" as="geometry">
            <mxPoint as="offset" />
          </mxGeometry>
        </mxCell>
        <mxCell id="LtXlSucPZQRgdzdFiFGl-7" value="WAIT_B&lt;div&gt;ack = 0&lt;/div&gt;" style="ellipse;whiteSpace=wrap;html=1;aspect=fixed;" parent="1" vertex="1">
          <mxGeometry x="414" y="460" width="80" height="80" as="geometry" />
        </mxCell>
        <mxCell id="LtXlSucPZQRgdzdFiFGl-49" value="" style="edgeStyle=orthogonalEdgeStyle;rounded=0;orthogonalLoop=1;jettySize=auto;html=1;entryX=0.5;entryY=0;entryDx=0;entryDy=0;" parent="1" source="LtXlSucPZQRgdzdFiFGl-10" target="LtXlSucPZQRgdzdFiFGl-58" edge="1">
          <mxGeometry relative="1" as="geometry">
            <mxPoint x="454" y="950" as="targetPoint" />
          </mxGeometry>
        </mxCell>
        <mxCell id="LtXlSucPZQRgdzdFiFGl-50" value="Req = 0" style="edgeLabel;html=1;align=center;verticalAlign=middle;resizable=0;points=[];" parent="LtXlSucPZQRgdzdFiFGl-49" vertex="1" connectable="0">
          <mxGeometry x="-0.22" y="2" relative="1" as="geometry">
            <mxPoint x="-2" y="-58" as="offset" />
          </mxGeometry>
        </mxCell>
        <mxCell id="LtXlSucPZQRgdzdFiFGl-10" value="IN_B" style="ellipse;whiteSpace=wrap;html=1;" parent="1" vertex="1">
          <mxGeometry x="414" y="620" width="80" height="80" as="geometry" />
        </mxCell>
        <mxCell id="LtXlSucPZQRgdzdFiFGl-16" value="RegB &amp;lt;= AB" style="text;html=1;align=center;verticalAlign=middle;resizable=0;points=[];autosize=1;strokeColor=none;fillColor=none;" parent="1" vertex="1">
          <mxGeometry x="494" y="645" width="90" height="30" as="geometry" />
        </mxCell>
        <mxCell id="LtXlSucPZQRgdzdFiFGl-18" value="RegA &amp;lt;= AB" style="text;html=1;align=center;verticalAlign=middle;resizable=0;points=[];autosize=1;strokeColor=none;fillColor=none;" parent="1" vertex="1">
          <mxGeometry x="500" y="335" width="90" height="30" as="geometry" />
        </mxCell>
        <mxCell id="LtXlSucPZQRgdzdFiFGl-52" value="" style="edgeStyle=orthogonalEdgeStyle;rounded=0;orthogonalLoop=1;jettySize=auto;html=1;exitX=0.5;exitY=1;exitDx=0;exitDy=0;" parent="1" source="LtXlSucPZQRgdzdFiFGl-58" target="LtXlSucPZQRgdzdFiFGl-51" edge="1">
          <mxGeometry relative="1" as="geometry">
            <mxPoint x="414" y="990" as="sourcePoint" />
            <Array as="points">
              <mxPoint x="454" y="980" />
            </Array>
          </mxGeometry>
        </mxCell>
        <mxCell id="LtXlSucPZQRgdzdFiFGl-55" value="A &amp;gt; B" style="edgeLabel;html=1;align=center;verticalAlign=middle;resizable=0;points=[];" parent="LtXlSucPZQRgdzdFiFGl-52" vertex="1" connectable="0">
          <mxGeometry x="-0.11" y="2" relative="1" as="geometry">
            <mxPoint as="offset" />
          </mxGeometry>
        </mxCell>
        <mxCell id="LtXlSucPZQRgdzdFiFGl-54" value="" style="edgeStyle=orthogonalEdgeStyle;rounded=0;orthogonalLoop=1;jettySize=auto;html=1;exitX=0.67;exitY=1.025;exitDx=0;exitDy=0;exitPerimeter=0;" parent="1" source="LtXlSucPZQRgdzdFiFGl-58" target="LtXlSucPZQRgdzdFiFGl-53" edge="1">
          <mxGeometry relative="1" as="geometry">
            <mxPoint x="494" y="990" as="sourcePoint" />
            <Array as="points">
              <mxPoint x="520" y="862" />
              <mxPoint x="520" y="990" />
            </Array>
          </mxGeometry>
        </mxCell>
        <mxCell id="LtXlSucPZQRgdzdFiFGl-56" value="A &amp;lt; B" style="edgeLabel;html=1;align=center;verticalAlign=middle;resizable=0;points=[];" parent="LtXlSucPZQRgdzdFiFGl-54" vertex="1" connectable="0">
          <mxGeometry x="-0.215" y="-1" relative="1" as="geometry">
            <mxPoint as="offset" />
          </mxGeometry>
        </mxCell>
        <mxCell id="LtXlSucPZQRgdzdFiFGl-64" style="edgeStyle=orthogonalEdgeStyle;rounded=0;orthogonalLoop=1;jettySize=auto;html=1;entryX=0;entryY=1;entryDx=0;entryDy=0;" parent="1" source="LtXlSucPZQRgdzdFiFGl-51" target="LtXlSucPZQRgdzdFiFGl-58" edge="1">
          <mxGeometry relative="1" as="geometry">
            <Array as="points">
              <mxPoint x="290" y="848" />
            </Array>
          </mxGeometry>
        </mxCell>
        <mxCell id="LtXlSucPZQRgdzdFiFGl-51" value="GREATER_A" style="ellipse;whiteSpace=wrap;html=1;" parent="1" vertex="1">
          <mxGeometry x="254" y="950" width="80" height="80" as="geometry" />
        </mxCell>
        <mxCell id="LtXlSucPZQRgdzdFiFGl-65" style="edgeStyle=orthogonalEdgeStyle;rounded=0;orthogonalLoop=1;jettySize=auto;html=1;entryX=1;entryY=1;entryDx=0;entryDy=0;" parent="1" source="LtXlSucPZQRgdzdFiFGl-53" target="LtXlSucPZQRgdzdFiFGl-58" edge="1">
          <mxGeometry relative="1" as="geometry">
            <Array as="points">
              <mxPoint x="610" y="848" />
            </Array>
          </mxGeometry>
        </mxCell>
        <mxCell id="LtXlSucPZQRgdzdFiFGl-53" value="GREATER_B" style="ellipse;whiteSpace=wrap;html=1;" parent="1" vertex="1">
          <mxGeometry x="574" y="950" width="80" height="80" as="geometry" />
        </mxCell>
        <mxCell id="LtXlSucPZQRgdzdFiFGl-59" style="edgeStyle=orthogonalEdgeStyle;rounded=0;orthogonalLoop=1;jettySize=auto;html=1;" parent="1" source="LtXlSucPZQRgdzdFiFGl-58" edge="1">
          <mxGeometry relative="1" as="geometry">
            <mxPoint x="120" y="1100" as="targetPoint" />
          </mxGeometry>
        </mxCell>
        <mxCell id="LtXlSucPZQRgdzdFiFGl-61" value="A == B" style="edgeLabel;html=1;align=center;verticalAlign=middle;resizable=0;points=[];" parent="LtXlSucPZQRgdzdFiFGl-59" vertex="1" connectable="0">
          <mxGeometry x="0.3932" relative="1" as="geometry">
            <mxPoint as="offset" />
          </mxGeometry>
        </mxCell>
        <mxCell id="LtXlSucPZQRgdzdFiFGl-58" value="DECISION" style="ellipse;whiteSpace=wrap;html=1;aspect=fixed;" parent="1" vertex="1">
          <mxGeometry x="414" y="780" width="80" height="80" as="geometry" />
        </mxCell>
        <mxCell id="LtXlSucPZQRgdzdFiFGl-60" value="FINISH&lt;div&gt;ack = 1&lt;/div&gt;" style="ellipse;whiteSpace=wrap;html=1;aspect=fixed;" parent="1" vertex="1">
          <mxGeometry x="80" y="1100" width="80" height="80" as="geometry" />
        </mxCell>
        <mxCell id="PxH_RCUQcTT1L6NSWEDj-2" value="&lt;div&gt;&lt;b&gt;default:&lt;/b&gt;&lt;/div&gt;ack = &#39;0&#39;&lt;br&gt;C = &#39;Z&#39;" style="whiteSpace=wrap;html=1;aspect=fixed;" vertex="1" parent="1">
          <mxGeometry x="630" y="130" width="80" height="80" as="geometry" />
        </mxCell>
      </root>
    </mxGraphModel>
  </diagram>
</mxfile>
